<svg width="169" height="38" viewBox="0 0 169 38" fill="none" xmlns="http://www.w3.org/2000/svg">
<path d="M2.52 16H6.24L12.9 32.2L19.56 16H23.28V37H19.92V23.68L14.4 37H11.4L5.88 23.68V37H2.52V16ZM40.856 37L39.596 33.55H30.236L28.976 37H25.466L33.236 16H36.596L44.366 37H40.856ZM31.346 30.37H38.486L34.916 20.5L31.346 30.37ZM42.7261 16H55.6261V19.18H50.8561V37H47.4961V19.18H42.7261V16ZM69.8013 37L68.5413 33.55H59.1813L57.9213 37H54.4113L62.1813 16H65.5413L73.3113 37H69.8013ZM60.2913 30.37H67.4313L63.8613 20.5L60.2913 30.37ZM81.7657 16C82.6057 16 83.3857 16.14 84.1057 16.42C84.8457 16.68 85.4857 17.07 86.0257 17.59C86.5657 18.09 86.9957 18.71 87.3157 19.45C87.6357 20.19 87.7957 21.04 87.7957 22C87.7957 22.84 87.6657 23.6 87.4057 24.28C87.1457 24.94 86.7957 25.52 86.3557 26.02C85.9357 26.5 85.4357 26.9 84.8557 27.22C84.2757 27.54 83.6657 27.76 83.0257 27.88L87.7957 37H83.9557L79.4557 28H78.9757V37H75.6157V16H81.7657ZM78.9757 24.82H81.7957C82.6957 24.82 83.3657 24.56 83.8057 24.04C84.2657 23.5 84.4957 22.82 84.4957 22C84.4957 21.18 84.2657 20.51 83.8057 19.99C83.3657 19.45 82.6957 19.18 81.7957 19.18H78.9757V24.82ZM104.84 37L103.58 33.55H94.2204L92.9604 37H89.4504L97.2204 16H100.58L108.35 37H104.84ZM95.3304 30.37H102.47L98.9004 20.5L95.3304 30.37ZM112.969 25H116.869L121.099 19.18H111.409V16H125.239V18.82L120.769 25H122.389V28H118.579L114.379 33.82H126.589V37H110.239V34.18L114.709 28H112.969V25ZM131.661 25H135.561L139.791 19.18H130.101V16H143.931V18.82L139.461 25H141.081V28H137.271L133.071 33.82H145.281V37H128.931V34.18L133.401 28H131.661V25ZM167.453 26.5C167.453 27.98 167.193 29.37 166.673 30.67C166.153 31.97 165.423 33.1 164.483 34.06C163.563 35.02 162.463 35.78 161.183 36.34C159.923 36.9 158.553 37.18 157.073 37.18C155.593 37.18 154.213 36.9 152.933 36.34C151.673 35.78 150.573 35.02 149.633 34.06C148.713 33.1 147.993 31.97 147.473 30.67C146.953 29.37 146.693 27.98 146.693 26.5C146.693 25.02 146.953 23.63 147.473 22.33C147.993 21.03 148.713 19.9 149.633 18.94C150.573 17.98 151.673 17.22 152.933 16.66C154.213 16.1 155.593 15.82 157.073 15.82C158.553 15.82 159.923 16.1 161.183 16.66C162.463 17.22 163.563 17.98 164.483 18.94C165.423 19.9 166.153 21.03 166.673 22.33C167.193 23.63 167.453 25.02 167.453 26.5ZM164.033 26.5C164.033 25.46 163.863 24.48 163.523 23.56C163.183 22.64 162.703 21.85 162.083 21.19C161.463 20.51 160.723 19.98 159.863 19.6C159.023 19.2 158.093 19 157.073 19C156.053 19 155.113 19.2 154.253 19.6C153.413 19.98 152.683 20.51 152.063 21.19C151.443 21.85 150.963 22.64 150.623 23.56C150.283 24.48 150.113 25.46 150.113 26.5C150.113 27.56 150.283 28.55 150.623 29.47C150.963 30.37 151.443 31.16 152.063 31.84C152.683 32.5 153.413 33.03 154.253 33.43C155.113 33.81 156.053 34 157.073 34C158.093 34 159.023 33.81 159.863 33.43C160.723 33.03 161.463 32.5 162.083 31.84C162.703 31.16 163.183 30.37 163.523 29.47C163.863 28.55 164.033 27.56 164.033 26.5Z" fill="#231F20"/>
<path d="M26.24 9.1C26.24 9.59467 26.3193 10.0567 26.478 10.486C26.6367 10.906 26.8607 11.2747 27.15 11.592C27.4393 11.9 27.78 12.1473 28.172 12.334C28.5733 12.5113 29.012 12.6 29.488 12.6C29.964 12.6 30.398 12.5113 30.79 12.334C31.1913 12.1567 31.5367 11.914 31.826 11.606C32.1153 11.298 32.3393 10.9293 32.498 10.5C32.6567 10.0707 32.736 9.604 32.736 9.1H34.332C34.332 9.79067 34.2107 10.4393 33.968 11.046C33.7253 11.6527 33.3847 12.18 32.946 12.628C32.5167 13.076 32.0033 13.4307 31.406 13.692C30.818 13.9533 30.1787 14.084 29.488 14.084C28.7973 14.084 28.1533 13.9533 27.556 13.692C26.968 13.4307 26.4547 13.076 26.016 12.628C25.5867 12.18 25.2507 11.6527 25.008 11.046C24.7653 10.4393 24.644 9.79067 24.644 9.1C24.644 8.40933 24.7653 7.76067 25.008 7.154C25.2507 6.54733 25.5867 6.02 26.016 5.572C26.4547 5.124 26.968 4.76933 27.556 4.508C28.1533 4.24667 28.7973 4.116 29.488 4.116C30.2813 4.116 30.986 4.27933 31.602 4.606C32.2273 4.93267 32.764 5.36667 33.212 5.908L32.12 7C31.8213 6.57067 31.4573 6.23 31.028 5.978C30.5987 5.726 30.0853 5.6 29.488 5.6C29.012 5.6 28.5733 5.69333 28.172 5.88C27.78 6.05733 27.4393 6.30467 27.15 6.622C26.8607 6.93 26.6367 7.29867 26.478 7.728C26.3193 8.15733 26.24 8.61467 26.24 9.1ZM35.6213 4.2H41.7673V5.684H37.1893V8.316H39.4153V9.8H37.1893V12.516H41.8513V14H35.6213V4.2ZM43.2092 4.2H44.9452L48.0952 10.948V4.2H49.6632V14H47.9272L44.7772 7.252V14H43.2092V4.2ZM50.8295 4.2H56.8495V5.684H54.6235V14H53.0555V5.684H50.8295V4.2ZM61.214 4.2C61.606 4.2 61.97 4.26533 62.306 4.396C62.6513 4.51733 62.95 4.69933 63.202 4.942C63.454 5.17533 63.6546 5.46467 63.804 5.81C63.9533 6.15533 64.028 6.552 64.028 7C64.028 7.392 63.9673 7.74667 63.846 8.064C63.7246 8.372 63.5613 8.64267 63.356 8.876C63.16 9.1 62.9266 9.28667 62.656 9.436C62.3853 9.58533 62.1006 9.688 61.802 9.744L64.028 14H62.236L60.136 9.8H59.912V14H58.344V4.2H61.214ZM59.912 8.316H61.228C61.648 8.316 61.9606 8.19467 62.166 7.952C62.3806 7.7 62.488 7.38267 62.488 7C62.488 6.61733 62.3806 6.30467 62.166 6.062C61.9606 5.81 61.648 5.684 61.228 5.684H59.912V8.316ZM74.6777 9.1C74.6777 9.79067 74.5564 10.4393 74.3137 11.046C74.071 11.6527 73.7304 12.18 73.2917 12.628C72.8624 13.076 72.349 13.4307 71.7517 13.692C71.1637 13.9533 70.5244 14.084 69.8337 14.084C69.143 14.084 68.499 13.9533 67.9017 13.692C67.3137 13.4307 66.8004 13.076 66.3617 12.628C65.9324 12.18 65.5964 11.6527 65.3537 11.046C65.111 10.4393 64.9897 9.79067 64.9897 9.1C64.9897 8.40933 65.111 7.76067 65.3537 7.154C65.5964 6.54733 65.9324 6.02 66.3617 5.572C66.8004 5.124 67.3137 4.76933 67.9017 4.508C68.499 4.24667 69.143 4.116 69.8337 4.116C70.5244 4.116 71.1637 4.24667 71.7517 4.508C72.349 4.76933 72.8624 5.124 73.2917 5.572C73.7304 6.02 74.071 6.54733 74.3137 7.154C74.5564 7.76067 74.6777 8.40933 74.6777 9.1ZM73.0817 9.1C73.0817 8.61467 73.0024 8.15733 72.8437 7.728C72.685 7.29867 72.461 6.93 72.1717 6.622C71.8824 6.30467 71.537 6.05733 71.1357 5.88C70.7437 5.69333 70.3097 5.6 69.8337 5.6C69.3577 5.6 68.919 5.69333 68.5177 5.88C68.1257 6.05733 67.785 6.30467 67.4957 6.622C67.2064 6.93 66.9824 7.29867 66.8237 7.728C66.665 8.15733 66.5857 8.61467 66.5857 9.1C66.5857 9.59467 66.665 10.0567 66.8237 10.486C66.9824 10.906 67.2064 11.2747 67.4957 11.592C67.785 11.9 68.1257 12.1473 68.5177 12.334C68.919 12.5113 69.3577 12.6 69.8337 12.6C70.3097 12.6 70.7437 12.5113 71.1357 12.334C71.537 12.1473 71.8824 11.9 72.1717 11.592C72.461 11.2747 72.685 10.906 72.8437 10.486C73.0024 10.0567 73.0817 9.59467 73.0817 9.1ZM81.5154 9.1C81.5154 9.59467 81.5947 10.0567 81.7534 10.486C81.9121 10.906 82.1361 11.2747 82.4254 11.592C82.7147 11.9 83.0554 12.1473 83.4474 12.334C83.8487 12.5113 84.2874 12.6 84.7634 12.6C85.2394 12.6 85.6734 12.5113 86.0654 12.334C86.4667 12.1567 86.8121 11.914 87.1014 11.606C87.3907 11.298 87.6147 10.9293 87.7734 10.5C87.9321 10.0707 88.0114 9.604 88.0114 9.1H89.6074C89.6074 9.79067 89.4861 10.4393 89.2434 11.046C89.0007 11.6527 88.6601 12.18 88.2214 12.628C87.7921 13.076 87.2787 13.4307 86.6814 13.692C86.0934 13.9533 85.4541 14.084 84.7634 14.084C84.0727 14.084 83.4287 13.9533 82.8314 13.692C82.2434 13.4307 81.7301 13.076 81.2914 12.628C80.8621 12.18 80.5261 11.6527 80.2834 11.046C80.0407 10.4393 79.9194 9.79067 79.9194 9.1C79.9194 8.40933 80.0407 7.76067 80.2834 7.154C80.5261 6.54733 80.8621 6.02 81.2914 5.572C81.7301 5.124 82.2434 4.76933 82.8314 4.508C83.4287 4.24667 84.0727 4.116 84.7634 4.116C85.5567 4.116 86.2614 4.27933 86.8774 4.606C87.5027 4.93267 88.0394 5.36667 88.4874 5.908L87.3954 7C87.0967 6.57067 86.7327 6.23 86.3034 5.978C85.8741 5.726 85.3607 5.6 84.7634 5.6C84.2874 5.6 83.8487 5.69333 83.4474 5.88C83.0554 6.05733 82.7147 6.30467 82.4254 6.622C82.1361 6.93 81.9121 7.29867 81.7534 7.728C81.5947 8.15733 81.5154 8.61467 81.5154 9.1ZM97.3155 4.2V10.85C97.3155 11.326 97.2362 11.7647 97.0775 12.166C96.9188 12.558 96.6948 12.8987 96.4055 13.188C96.1255 13.468 95.7895 13.6873 95.3975 13.846C95.0055 14.0047 94.5808 14.084 94.1235 14.084C93.6662 14.084 93.2415 14.0047 92.8495 13.846C92.4575 13.6873 92.1168 13.468 91.8275 13.188C91.5475 12.8987 91.3282 12.558 91.1695 12.166C91.0108 11.7647 90.9315 11.326 90.9315 10.85V4.2H92.4995V10.934C92.4995 11.438 92.6442 11.844 92.9335 12.152C93.2228 12.4507 93.6195 12.6 94.1235 12.6C94.6275 12.6 95.0242 12.4507 95.3135 12.152C95.6028 11.844 95.7475 11.438 95.7475 10.934V4.2H97.3155ZM99.0315 4.2H100.599V12.516H105.261V14H99.0315V4.2ZM104.437 4.2H110.457V5.684H108.231V14H106.663V5.684H104.437V4.2ZM118.206 4.2V10.85C118.206 11.326 118.127 11.7647 117.968 12.166C117.809 12.558 117.585 12.8987 117.296 13.188C117.016 13.468 116.68 13.6873 116.288 13.846C115.896 14.0047 115.471 14.084 115.014 14.084C114.557 14.084 114.132 14.0047 113.74 13.846C113.348 13.6873 113.007 13.468 112.718 13.188C112.438 12.8987 112.219 12.558 112.06 12.166C111.901 11.7647 111.822 11.326 111.822 10.85V4.2H113.39V10.934C113.39 11.438 113.535 11.844 113.824 12.152C114.113 12.4507 114.51 12.6 115.014 12.6C115.518 12.6 115.915 12.4507 116.204 12.152C116.493 11.844 116.638 11.438 116.638 10.934V4.2H118.206ZM122.792 4.2C123.184 4.2 123.548 4.26533 123.884 4.396C124.229 4.51733 124.528 4.69933 124.78 4.942C125.032 5.17533 125.233 5.46467 125.382 5.81C125.531 6.15533 125.606 6.552 125.606 7C125.606 7.392 125.545 7.74667 125.424 8.064C125.303 8.372 125.139 8.64267 124.934 8.876C124.738 9.1 124.505 9.28667 124.234 9.436C123.963 9.58533 123.679 9.688 123.38 9.744L125.606 14H123.814L121.714 9.8H121.49V14H119.922V4.2H122.792ZM121.49 8.316H122.806C123.226 8.316 123.539 8.19467 123.744 7.952C123.959 7.7 124.066 7.38267 124.066 7C124.066 6.61733 123.959 6.30467 123.744 6.062C123.539 5.81 123.226 5.684 122.806 5.684H121.49V8.316ZM133.56 14L132.972 12.39H128.604L128.016 14H126.378L130.004 4.2H131.572L135.198 14H133.56ZM129.122 10.906H132.454L130.788 6.3L129.122 10.906ZM136.274 4.2H137.842V12.516H142.504V14H136.274V4.2Z" fill="#231F20"/>
</svg>
