<svg width="169" height="51" viewBox="0 0 169 51" fill="none" xmlns="http://www.w3.org/2000/svg">
<path d="M2.52 22H6.24L12.9 38.2L19.56 22H23.28V43H19.92V29.68L14.4 43H11.4L5.88 29.68V43H2.52V22ZM40.856 43L39.596 39.55H30.236L28.976 43H25.466L33.236 22H36.596L44.366 43H40.856ZM31.346 36.37H38.486L34.916 26.5L31.346 36.37ZM42.7261 22H55.6261V25.18H50.8561V43H47.4961V25.18H42.7261V22ZM69.8013 43L68.5413 39.55H59.1813L57.9213 43H54.4113L62.1813 22H65.5413L73.3113 43H69.8013ZM60.2913 36.37H67.4313L63.8613 26.5L60.2913 36.37ZM81.7657 22C82.6057 22 83.3857 22.14 84.1057 22.42C84.8457 22.68 85.4857 23.07 86.0257 23.59C86.5657 24.09 86.9957 24.71 87.3157 25.45C87.6357 26.19 87.7957 27.04 87.7957 28C87.7957 28.84 87.6657 29.6 87.4057 30.28C87.1457 30.94 86.7957 31.52 86.3557 32.02C85.9357 32.5 85.4357 32.9 84.8557 33.22C84.2757 33.54 83.6657 33.76 83.0257 33.88L87.7957 43H83.9557L79.4557 34H78.9757V43H75.6157V22H81.7657ZM78.9757 30.82H81.7957C82.6957 30.82 83.3657 30.56 83.8057 30.04C84.2657 29.5 84.4957 28.82 84.4957 28C84.4957 27.18 84.2657 26.51 83.8057 25.99C83.3657 25.45 82.6957 25.18 81.7957 25.18H78.9757V30.82ZM104.84 43L103.58 39.55H94.2204L92.9604 43H89.4504L97.2204 22H100.58L108.35 43H104.84ZM95.3304 36.37H102.47L98.9004 26.5L95.3304 36.37ZM112.969 31H116.869L121.099 25.18H111.409V22H125.239V24.82L120.769 31H122.389V34H118.579L114.379 39.82H126.589V43H110.239V40.18L114.709 34H112.969V31ZM131.661 31H135.561L139.791 25.18H130.101V22H143.931V24.82L139.461 31H141.081V34H137.271L133.071 39.82H145.281V43H128.931V40.18L133.401 34H131.661V31ZM167.453 32.5C167.453 33.98 167.193 35.37 166.673 36.67C166.153 37.97 165.423 39.1 164.483 40.06C163.563 41.02 162.463 41.78 161.183 42.34C159.923 42.9 158.553 43.18 157.073 43.18C155.593 43.18 154.213 42.9 152.933 42.34C151.673 41.78 150.573 41.02 149.633 40.06C148.713 39.1 147.993 37.97 147.473 36.67C146.953 35.37 146.693 33.98 146.693 32.5C146.693 31.02 146.953 29.63 147.473 28.33C147.993 27.03 148.713 25.9 149.633 24.94C150.573 23.98 151.673 23.22 152.933 22.66C154.213 22.1 155.593 21.82 157.073 21.82C158.553 21.82 159.923 22.1 161.183 22.66C162.463 23.22 163.563 23.98 164.483 24.94C165.423 25.9 166.153 27.03 166.673 28.33C167.193 29.63 167.453 31.02 167.453 32.5ZM164.033 32.5C164.033 31.46 163.863 30.48 163.523 29.56C163.183 28.64 162.703 27.85 162.083 27.19C161.463 26.51 160.723 25.98 159.863 25.6C159.023 25.2 158.093 25 157.073 25C156.053 25 155.113 25.2 154.253 25.6C153.413 25.98 152.683 26.51 152.063 27.19C151.443 27.85 150.963 28.64 150.623 29.56C150.283 30.48 150.113 31.46 150.113 32.5C150.113 33.56 150.283 34.55 150.623 35.47C150.963 36.37 151.443 37.16 152.063 37.84C152.683 38.5 153.413 39.03 154.253 39.43C155.113 39.81 156.053 40 157.073 40C158.093 40 159.023 39.81 159.863 39.43C160.723 39.03 161.463 38.5 162.083 37.84C162.703 37.16 163.183 36.37 163.523 35.47C163.863 34.55 164.033 33.56 164.033 32.5Z" fill="#FCE373"/>
<path d="M27.24 13.1C27.24 13.5947 27.3193 14.0567 27.478 14.486C27.6367 14.906 27.8607 15.2747 28.15 15.592C28.4393 15.9 28.78 16.1473 29.172 16.334C29.5733 16.5113 30.012 16.6 30.488 16.6C30.964 16.6 31.398 16.5113 31.79 16.334C32.1913 16.1567 32.5367 15.914 32.826 15.606C33.1153 15.298 33.3393 14.9293 33.498 14.5C33.6567 14.0707 33.736 13.604 33.736 13.1H35.332C35.332 13.7907 35.2107 14.4393 34.968 15.046C34.7253 15.6527 34.3847 16.18 33.946 16.628C33.5167 17.076 33.0033 17.4307 32.406 17.692C31.818 17.9533 31.1787 18.084 30.488 18.084C29.7973 18.084 29.1533 17.9533 28.556 17.692C27.968 17.4307 27.4547 17.076 27.016 16.628C26.5867 16.18 26.2507 15.6527 26.008 15.046C25.7653 14.4393 25.644 13.7907 25.644 13.1C25.644 12.4093 25.7653 11.7607 26.008 11.154C26.2507 10.5473 26.5867 10.02 27.016 9.572C27.4547 9.124 27.968 8.76933 28.556 8.508C29.1533 8.24667 29.7973 8.116 30.488 8.116C31.2813 8.116 31.986 8.27933 32.602 8.606C33.2273 8.93267 33.764 9.36667 34.212 9.908L33.12 11C32.8213 10.5707 32.4573 10.23 32.028 9.978C31.5987 9.726 31.0853 9.6 30.488 9.6C30.012 9.6 29.5733 9.69333 29.172 9.88C28.78 10.0573 28.4393 10.3047 28.15 10.622C27.8607 10.93 27.6367 11.2987 27.478 11.728C27.3193 12.1573 27.24 12.6147 27.24 13.1ZM36.6213 8.2H42.7673V9.684H38.1893V12.316H40.4153V13.8H38.1893V16.516H42.8513V18H36.6213V8.2ZM44.2092 8.2H45.9452L49.0952 14.948V8.2H50.6632V18H48.9272L45.7772 11.252V18H44.2092V8.2ZM51.8295 8.2H57.8495V9.684H55.6235V18H54.0555V9.684H51.8295V8.2ZM62.214 8.2C62.606 8.2 62.97 8.26533 63.306 8.396C63.6513 8.51733 63.95 8.69933 64.202 8.942C64.454 9.17533 64.6546 9.46467 64.804 9.81C64.9533 10.1553 65.028 10.552 65.028 11C65.028 11.392 64.9673 11.7467 64.846 12.064C64.7246 12.372 64.5613 12.6427 64.356 12.876C64.16 13.1 63.9266 13.2867 63.656 13.436C63.3853 13.5853 63.1006 13.688 62.802 13.744L65.028 18H63.236L61.136 13.8H60.912V18H59.344V8.2H62.214ZM60.912 12.316H62.228C62.648 12.316 62.9606 12.1947 63.166 11.952C63.3806 11.7 63.488 11.3827 63.488 11C63.488 10.6173 63.3806 10.3047 63.166 10.062C62.9606 9.81 62.648 9.684 62.228 9.684H60.912V12.316ZM75.6777 13.1C75.6777 13.7907 75.5564 14.4393 75.3137 15.046C75.071 15.6527 74.7304 16.18 74.2917 16.628C73.8624 17.076 73.349 17.4307 72.7517 17.692C72.1637 17.9533 71.5244 18.084 70.8337 18.084C70.143 18.084 69.499 17.9533 68.9017 17.692C68.3137 17.4307 67.8004 17.076 67.3617 16.628C66.9324 16.18 66.5964 15.6527 66.3537 15.046C66.111 14.4393 65.9897 13.7907 65.9897 13.1C65.9897 12.4093 66.111 11.7607 66.3537 11.154C66.5964 10.5473 66.9324 10.02 67.3617 9.572C67.8004 9.124 68.3137 8.76933 68.9017 8.508C69.499 8.24667 70.143 8.116 70.8337 8.116C71.5244 8.116 72.1637 8.24667 72.7517 8.508C73.349 8.76933 73.8624 9.124 74.2917 9.572C74.7304 10.02 75.071 10.5473 75.3137 11.154C75.5564 11.7607 75.6777 12.4093 75.6777 13.1ZM74.0817 13.1C74.0817 12.6147 74.0024 12.1573 73.8437 11.728C73.685 11.2987 73.461 10.93 73.1717 10.622C72.8824 10.3047 72.537 10.0573 72.1357 9.88C71.7437 9.69333 71.3097 9.6 70.8337 9.6C70.3577 9.6 69.919 9.69333 69.5177 9.88C69.1257 10.0573 68.785 10.3047 68.4957 10.622C68.2064 10.93 67.9824 11.2987 67.8237 11.728C67.665 12.1573 67.5857 12.6147 67.5857 13.1C67.5857 13.5947 67.665 14.0567 67.8237 14.486C67.9824 14.906 68.2064 15.2747 68.4957 15.592C68.785 15.9 69.1257 16.1473 69.5177 16.334C69.919 16.5113 70.3577 16.6 70.8337 16.6C71.3097 16.6 71.7437 16.5113 72.1357 16.334C72.537 16.1473 72.8824 15.9 73.1717 15.592C73.461 15.2747 73.685 14.906 73.8437 14.486C74.0024 14.0567 74.0817 13.5947 74.0817 13.1ZM82.5154 13.1C82.5154 13.5947 82.5947 14.0567 82.7534 14.486C82.9121 14.906 83.1361 15.2747 83.4254 15.592C83.7147 15.9 84.0554 16.1473 84.4474 16.334C84.8487 16.5113 85.2874 16.6 85.7634 16.6C86.2394 16.6 86.6734 16.5113 87.0654 16.334C87.4667 16.1567 87.8121 15.914 88.1014 15.606C88.3907 15.298 88.6147 14.9293 88.7734 14.5C88.9321 14.0707 89.0114 13.604 89.0114 13.1H90.6074C90.6074 13.7907 90.4861 14.4393 90.2434 15.046C90.0007 15.6527 89.6601 16.18 89.2214 16.628C88.7921 17.076 88.2787 17.4307 87.6814 17.692C87.0934 17.9533 86.4541 18.084 85.7634 18.084C85.0727 18.084 84.4287 17.9533 83.8314 17.692C83.2434 17.4307 82.7301 17.076 82.2914 16.628C81.8621 16.18 81.5261 15.6527 81.2834 15.046C81.0407 14.4393 80.9194 13.7907 80.9194 13.1C80.9194 12.4093 81.0407 11.7607 81.2834 11.154C81.5261 10.5473 81.8621 10.02 82.2914 9.572C82.7301 9.124 83.2434 8.76933 83.8314 8.508C84.4287 8.24667 85.0727 8.116 85.7634 8.116C86.5567 8.116 87.2614 8.27933 87.8774 8.606C88.5027 8.93267 89.0394 9.36667 89.4874 9.908L88.3954 11C88.0967 10.5707 87.7327 10.23 87.3034 9.978C86.8741 9.726 86.3607 9.6 85.7634 9.6C85.2874 9.6 84.8487 9.69333 84.4474 9.88C84.0554 10.0573 83.7147 10.3047 83.4254 10.622C83.1361 10.93 82.9121 11.2987 82.7534 11.728C82.5947 12.1573 82.5154 12.6147 82.5154 13.1ZM98.3155 8.2V14.85C98.3155 15.326 98.2362 15.7647 98.0775 16.166C97.9188 16.558 97.6948 16.8987 97.4055 17.188C97.1255 17.468 96.7895 17.6873 96.3975 17.846C96.0055 18.0047 95.5808 18.084 95.1235 18.084C94.6662 18.084 94.2415 18.0047 93.8495 17.846C93.4575 17.6873 93.1168 17.468 92.8275 17.188C92.5475 16.8987 92.3282 16.558 92.1695 16.166C92.0108 15.7647 91.9315 15.326 91.9315 14.85V8.2H93.4995V14.934C93.4995 15.438 93.6442 15.844 93.9335 16.152C94.2228 16.4507 94.6195 16.6 95.1235 16.6C95.6275 16.6 96.0242 16.4507 96.3135 16.152C96.6028 15.844 96.7475 15.438 96.7475 14.934V8.2H98.3155ZM100.031 8.2H101.599V16.516H106.261V18H100.031V8.2ZM105.437 8.2H111.457V9.684H109.231V18H107.663V9.684H105.437V8.2ZM119.206 8.2V14.85C119.206 15.326 119.127 15.7647 118.968 16.166C118.809 16.558 118.585 16.8987 118.296 17.188C118.016 17.468 117.68 17.6873 117.288 17.846C116.896 18.0047 116.471 18.084 116.014 18.084C115.557 18.084 115.132 18.0047 114.74 17.846C114.348 17.6873 114.007 17.468 113.718 17.188C113.438 16.8987 113.219 16.558 113.06 16.166C112.901 15.7647 112.822 15.326 112.822 14.85V8.2H114.39V14.934C114.39 15.438 114.535 15.844 114.824 16.152C115.113 16.4507 115.51 16.6 116.014 16.6C116.518 16.6 116.915 16.4507 117.204 16.152C117.493 15.844 117.638 15.438 117.638 14.934V8.2H119.206ZM123.792 8.2C124.184 8.2 124.548 8.26533 124.884 8.396C125.229 8.51733 125.528 8.69933 125.78 8.942C126.032 9.17533 126.233 9.46467 126.382 9.81C126.531 10.1553 126.606 10.552 126.606 11C126.606 11.392 126.545 11.7467 126.424 12.064C126.303 12.372 126.139 12.6427 125.934 12.876C125.738 13.1 125.505 13.2867 125.234 13.436C124.963 13.5853 124.679 13.688 124.38 13.744L126.606 18H124.814L122.714 13.8H122.49V18H120.922V8.2H123.792ZM122.49 12.316H123.806C124.226 12.316 124.539 12.1947 124.744 11.952C124.959 11.7 125.066 11.3827 125.066 11C125.066 10.6173 124.959 10.3047 124.744 10.062C124.539 9.81 124.226 9.684 123.806 9.684H122.49V12.316ZM134.56 18L133.972 16.39H129.604L129.016 18H127.378L131.004 8.2H132.572L136.198 18H134.56ZM130.122 14.906H133.454L131.788 10.3L130.122 14.906ZM137.274 8.2H138.842V16.516H143.504V18H137.274V8.2Z" fill="#FCE373"/>
</svg>
