<svg width="218" height="74" viewBox="0 0 218 74" fill="none" xmlns="http://www.w3.org/2000/svg">
<path d="M3.23438 18.0469H65.7656V52.4219H3.23438V18.0469Z" fill="#FBB06A"/>
<path d="M34.5 28.3594C35.9297 28.3594 37.3008 28.8121 38.3117 29.6179C39.3227 30.4237 39.8906 31.5166 39.8906 32.6562V42.1094H29.1094V32.6562C29.1094 31.5166 29.6773 30.4237 30.6883 29.6179C31.6992 28.8121 33.0703 28.3594 34.5 28.3594V28.3594Z" fill="#D48031"/>
<path d="M35.5781 28.4238V42.1094H33.4219V28.4238C33.7252 28.3805 34.0328 28.3589 34.341 28.3594H34.659C34.9672 28.3589 35.2748 28.3805 35.5781 28.4238V28.4238Z" fill="#D48031"/>
<path d="M65.7656 18.0469H3.23438L14.0156 9.45312H54.9844L65.7656 18.0469Z" fill="#7A4830"/>
<path d="M39.8906 21.4844H44.2031V45.5469H39.8906V21.4844Z" fill="#C2A186"/>
<path d="M24.7969 21.4844H29.1094V45.5469H24.7969V21.4844Z" fill="#C2A186"/>
<path d="M24.7969 45.5469H44.2031V48.9844H24.7969V45.5469Z" fill="#95573A"/>
<path d="M15.0938 48.9844H53.9062V52.4219H15.0938V48.9844Z" fill="#7A4830"/>
<path d="M7.54688 24.9219H11.8594V33.5156H7.54688V24.9219Z" fill="#FBE9D8"/>
<path d="M16.1719 24.9219H20.4844V33.5156H16.1719V24.9219Z" fill="#FBE9D8"/>
<path d="M16.1719 36.9531H20.4844V45.5469H16.1719V36.9531Z" fill="#FBE9D8"/>
<path d="M7.54688 36.9531H11.8594V45.5469H7.54688V36.9531Z" fill="#FBE9D8"/>
<path d="M48.5156 24.9219H52.8281V33.5156H48.5156V24.9219Z" fill="#FBE9D8"/>
<path d="M57.1406 24.9219H61.4531V33.5156H57.1406V24.9219Z" fill="#FBE9D8"/>
<path d="M57.1406 36.9531H61.4531V45.5469H57.1406V36.9531Z" fill="#FBE9D8"/>
<path d="M48.5156 36.9531H52.8281V45.5469H48.5156V36.9531Z" fill="#FBE9D8"/>
<path d="M29.1094 42.1094H39.8906V45.5469H29.1094V42.1094Z" fill="#AD6643"/>
<path d="M20.4844 18.0469H48.5156V21.4844H20.4844V18.0469Z" fill="#D48031"/>
<path d="M35.5781 28.4238V42.1094H33.4219V28.4238C33.7252 28.3805 34.0328 28.3589 34.341 28.3594H34.659C34.9672 28.3589 35.2748 28.3805 35.5781 28.4238V28.4238Z" fill="#C2752D"/>
<path d="M64.852 43.14C63.8627 43.14 62.9667 42.9253 62.164 42.496C61.3707 42.0573 60.7453 41.4553 60.288 40.69C59.84 39.9247 59.616 39.0613 59.616 38.1C59.616 37.1387 59.8447 36.2753 60.302 35.51C60.7593 34.7447 61.3847 34.1473 62.178 33.718C62.9807 33.2793 63.8767 33.06 64.866 33.06C65.6687 33.06 66.4013 33.2 67.064 33.48C67.7267 33.76 68.2867 34.166 68.744 34.698L67.568 35.804C66.8587 35.0387 65.986 34.656 64.95 34.656C64.278 34.656 63.676 34.8053 63.144 35.104C62.612 35.3933 62.1967 35.7993 61.898 36.322C61.5993 36.8447 61.45 37.4373 61.45 38.1C61.45 38.7627 61.5993 39.3553 61.898 39.878C62.1967 40.4007 62.612 40.8113 63.144 41.11C63.676 41.3993 64.278 41.544 64.95 41.544C65.986 41.544 66.8587 41.1567 67.568 40.382L68.744 41.502C68.2867 42.034 67.722 42.44 67.05 42.72C66.3873 43 65.6547 43.14 64.852 43.14ZM77.8379 41.474V43H70.4879V33.2H77.6419V34.726H72.3079V37.274H77.0399V38.772H72.3079V41.474H77.8379ZM88.5748 33.2V43H87.0768L81.6728 36.364V43H79.8668V33.2H81.3648L86.7688 39.836V33.2H88.5748ZM93.1888 34.74H89.9408V33.2H98.2568V34.74H95.0088V43H93.1888V34.74ZM106.035 43L104.033 40.13C103.949 40.1393 103.823 40.144 103.655 40.144H101.443V43H99.6226V33.2H103.655C104.504 33.2 105.241 33.34 105.867 33.62C106.501 33.9 106.987 34.3013 107.323 34.824C107.659 35.3467 107.827 35.9673 107.827 36.686C107.827 37.4233 107.645 38.058 107.281 38.59C106.926 39.122 106.413 39.5187 105.741 39.78L107.995 43H106.035ZM105.993 36.686C105.993 36.0607 105.787 35.58 105.377 35.244C104.966 34.908 104.364 34.74 103.571 34.74H101.443V38.646H103.571C104.364 38.646 104.966 38.478 105.377 38.142C105.787 37.7967 105.993 37.3113 105.993 36.686ZM114.441 43.14C113.442 43.14 112.542 42.9253 111.739 42.496C110.936 42.0573 110.306 41.4553 109.849 40.69C109.392 39.9153 109.163 39.052 109.163 38.1C109.163 37.148 109.392 36.2893 109.849 35.524C110.306 34.7493 110.936 34.1473 111.739 33.718C112.542 33.2793 113.442 33.06 114.441 33.06C115.44 33.06 116.34 33.2793 117.143 33.718C117.946 34.1473 118.576 34.7447 119.033 35.51C119.49 36.2753 119.719 37.1387 119.719 38.1C119.719 39.0613 119.49 39.9247 119.033 40.69C118.576 41.4553 117.946 42.0573 117.143 42.496C116.34 42.9253 115.44 43.14 114.441 43.14ZM114.441 41.544C115.094 41.544 115.682 41.3993 116.205 41.11C116.728 40.8113 117.138 40.4007 117.437 39.878C117.736 39.346 117.885 38.7533 117.885 38.1C117.885 37.4467 117.736 36.8587 117.437 36.336C117.138 35.804 116.728 35.3933 116.205 35.104C115.682 34.8053 115.094 34.656 114.441 34.656C113.788 34.656 113.2 34.8053 112.677 35.104C112.154 35.3933 111.744 35.804 111.445 36.336C111.146 36.8587 110.997 37.4467 110.997 38.1C110.997 38.7533 111.146 39.346 111.445 39.878C111.744 40.4007 112.154 40.8113 112.677 41.11C113.2 41.3993 113.788 41.544 114.441 41.544ZM130.053 43.14C129.064 43.14 128.168 42.9253 127.365 42.496C126.572 42.0573 125.947 41.4553 125.489 40.69C125.041 39.9247 124.817 39.0613 124.817 38.1C124.817 37.1387 125.046 36.2753 125.503 35.51C125.961 34.7447 126.586 34.1473 127.379 33.718C128.182 33.2793 129.078 33.06 130.067 33.06C130.87 33.06 131.603 33.2 132.265 33.48C132.928 33.76 133.488 34.166 133.945 34.698L132.769 35.804C132.06 35.0387 131.187 34.656 130.151 34.656C129.479 34.656 128.877 34.8053 128.345 35.104C127.813 35.3933 127.398 35.7993 127.099 36.322C126.801 36.8447 126.651 37.4373 126.651 38.1C126.651 38.7627 126.801 39.3553 127.099 39.878C127.398 40.4007 127.813 40.8113 128.345 41.11C128.877 41.3993 129.479 41.544 130.151 41.544C131.187 41.544 132.06 41.1567 132.769 40.382L133.945 41.502C133.488 42.034 132.923 42.44 132.251 42.72C131.589 43 130.856 43.14 130.053 43.14ZM139.835 43.14C138.481 43.14 137.427 42.762 136.671 42.006C135.915 41.2407 135.537 40.1487 135.537 38.73V33.2H137.357V38.66C137.357 40.5827 138.187 41.544 139.849 41.544C141.501 41.544 142.327 40.5827 142.327 38.66V33.2H144.119V38.73C144.119 40.1487 143.741 41.2407 142.985 42.006C142.238 42.762 141.188 43.14 139.835 43.14ZM146.668 33.2H148.488V41.46H153.612V43H146.668V33.2ZM156.12 34.74H152.872V33.2H161.188V34.74H157.94V43H156.12V34.74ZM166.591 43.14C165.237 43.14 164.183 42.762 163.427 42.006C162.671 41.2407 162.293 40.1487 162.293 38.73V33.2H164.113V38.66C164.113 40.5827 164.943 41.544 166.605 41.544C168.257 41.544 169.083 40.5827 169.083 38.66V33.2H170.875V38.73C170.875 40.1487 170.497 41.2407 169.741 42.006C168.994 42.762 167.944 43.14 166.591 43.14ZM179.835 43L177.833 40.13C177.749 40.1393 177.623 40.144 177.455 40.144H175.243V43H173.423V33.2H177.455C178.305 33.2 179.042 33.34 179.667 33.62C180.302 33.9 180.787 34.3013 181.123 34.824C181.459 35.3467 181.627 35.9673 181.627 36.686C181.627 37.4233 181.445 38.058 181.081 38.59C180.727 39.122 180.213 39.5187 179.541 39.78L181.795 43H179.835ZM179.793 36.686C179.793 36.0607 179.588 35.58 179.177 35.244C178.767 34.908 178.165 34.74 177.371 34.74H175.243V38.646H177.371C178.165 38.646 178.767 38.478 179.177 38.142C179.588 37.7967 179.793 37.3113 179.793 36.686ZM190.02 40.732H185.12L184.154 43H182.278L186.688 33.2H188.48L192.904 43H191L190.02 40.732ZM189.418 39.304L187.57 35.02L185.736 39.304H189.418ZM194.15 33.2H195.97V41.46H201.094V43H194.15V33.2Z" fill="black"/>
<g filter="url(#filter0_d)">
<path d="M26.46 66L26.4 56.43L21.84 64.11H18.72L14.16 56.76V66H7.71V45H13.53L20.37 56.19L27.03 45H32.85L32.91 66H26.46ZM50.643 62.34H42.663L41.253 66H34.053L43.233 45H50.193L59.373 66H52.053L50.643 62.34ZM48.693 57.24L46.653 51.96L44.613 57.24H48.693ZM64.0083 50.49H57.8583V45H77.2383V50.49H71.0883V66H64.0083V50.49ZM92.3325 62.34H84.3525L82.9425 66H75.7425L84.9225 45H91.8825L101.063 66H93.7425L92.3325 62.34ZM90.3825 57.24L88.3425 51.96L86.3025 57.24H90.3825ZM111.192 60.72H109.272V66H102.192V45H112.302C114.242 45 115.932 45.32 117.372 45.96C118.812 46.6 119.922 47.52 120.702 48.72C121.482 49.92 121.872 51.32 121.872 52.92C121.872 54.42 121.532 55.73 120.852 56.85C120.172 57.97 119.192 58.86 117.912 59.52L122.322 66H114.762L111.192 60.72ZM114.732 52.92C114.732 52.14 114.492 51.54 114.012 51.12C113.532 50.68 112.812 50.46 111.852 50.46H109.272V55.38H111.852C112.812 55.38 113.532 55.17 114.012 54.75C114.492 54.31 114.732 53.7 114.732 52.92ZM138.856 62.34H130.876L129.466 66H122.266L131.446 45H138.406L147.586 66H140.266L138.856 62.34ZM136.906 57.24L134.866 51.96L132.826 57.24H136.906ZM167.256 60.51V66H147.966V61.65L157.566 50.49H148.266V45H166.776V49.35L157.176 60.51H167.256ZM187.852 60.51V66H168.562V61.65L178.162 50.49H168.862V45H187.372V49.35L177.772 60.51H187.852ZM200.771 66.48C198.511 66.48 196.481 66.01 194.681 65.07C192.881 64.13 191.471 62.83 190.451 61.17C189.431 59.49 188.921 57.6 188.921 55.5C188.921 53.4 189.431 51.52 190.451 49.86C191.471 48.18 192.881 46.87 194.681 45.93C196.481 44.99 198.511 44.52 200.771 44.52C203.031 44.52 205.061 44.99 206.861 45.93C208.661 46.87 210.071 48.18 211.091 49.86C212.111 51.52 212.621 53.4 212.621 55.5C212.621 57.6 212.111 59.49 211.091 61.17C210.071 62.83 208.661 64.13 206.861 65.07C205.061 66.01 203.031 66.48 200.771 66.48ZM200.771 60.75C201.651 60.75 202.441 60.54 203.141 60.12C203.861 59.68 204.431 59.07 204.851 58.29C205.271 57.49 205.481 56.56 205.481 55.5C205.481 54.44 205.271 53.52 204.851 52.74C204.431 51.94 203.861 51.33 203.141 50.91C202.441 50.47 201.651 50.25 200.771 50.25C199.891 50.25 199.091 50.47 198.371 50.91C197.671 51.33 197.111 51.94 196.691 52.74C196.271 53.52 196.061 54.44 196.061 55.5C196.061 56.56 196.271 57.49 196.691 58.29C197.111 59.07 197.671 59.68 198.371 60.12C199.091 60.54 199.891 60.75 200.771 60.75Z" fill="black"/>
</g>
<defs>
<filter id="filter0_d" x="2.70999" y="39.52" width="214.911" height="31.96" filterUnits="userSpaceOnUse" color-interpolation-filters="sRGB">
<feFlood flood-opacity="0" result="BackgroundImageFix"/>
<feColorMatrix in="SourceAlpha" type="matrix" values="0 0 0 0 0 0 0 0 0 0 0 0 0 0 0 0 0 0 127 0"/>
<feOffset/>
<feGaussianBlur stdDeviation="2.5"/>
<feColorMatrix type="matrix" values="0 0 0 0 0 0 0 0 0 0 0 0 0 0 0 0 0 0 0.25 0"/>
<feBlend mode="normal" in2="BackgroundImageFix" result="effect1_dropShadow"/>
<feBlend mode="normal" in="SourceGraphic" in2="effect1_dropShadow" result="shape"/>
</filter>
</defs>
</svg>
